<mxfile host="app.diagrams.net" modified="2021-04-11T06:38:26.520Z" agent="5.0 (Windows NT 10.0; Win64; x64) AppleWebKit/537.36 (KHTML, like Gecko) Chrome/89.0.4389.114 Safari/537.36" etag="wJqm09MUW2W-kTdYt4Eg" version="14.5.10" type="github">
  <diagram id="2AaoYMfwIzmp9pcGzUzD" name="Page-1">
    <mxGraphModel dx="1394" dy="422" grid="1" gridSize="10" guides="1" tooltips="1" connect="1" arrows="1" fold="1" page="1" pageScale="1" pageWidth="827" pageHeight="1169" math="0" shadow="0">
      <root>
        <mxCell id="0" />
        <mxCell id="1" parent="0" />
        <mxCell id="iWXe2AP6moQlenEiE9FN-1" value="代码示例" style="swimlane;fontStyle=1;align=center;verticalAlign=top;childLayout=stackLayout;horizontal=1;startSize=26;horizontalStack=0;resizeParent=1;resizeParentMax=0;resizeLast=0;collapsible=1;marginBottom=0;" parent="1" vertex="1">
          <mxGeometry x="451" y="381" width="160" height="174" as="geometry" />
        </mxCell>
        <mxCell id="iWXe2AP6moQlenEiE9FN-2" value="-入口代码片段：代码片段&#xa;-所属使用场景：使用场景&#xa;-涉及API:API[1...*]&#xa;-代码仓库名地址：string" style="text;strokeColor=none;fillColor=none;align=left;verticalAlign=top;spacingLeft=4;spacingRight=4;overflow=hidden;rotatable=0;points=[[0,0.5],[1,0.5]];portConstraint=eastwest;" parent="iWXe2AP6moQlenEiE9FN-1" vertex="1">
          <mxGeometry y="26" width="160" height="70" as="geometry" />
        </mxCell>
        <mxCell id="iWXe2AP6moQlenEiE9FN-3" value="" style="line;strokeWidth=1;fillColor=none;align=left;verticalAlign=middle;spacingTop=-1;spacingLeft=3;spacingRight=3;rotatable=0;labelPosition=right;points=[];portConstraint=eastwest;" parent="iWXe2AP6moQlenEiE9FN-1" vertex="1">
          <mxGeometry y="96" width="160" height="8" as="geometry" />
        </mxCell>
        <mxCell id="iWXe2AP6moQlenEiE9FN-4" value="+获取代码片段（）&#xa;+获取项目仓库地址（）&#xa;+获取涉及API（）" style="text;strokeColor=none;fillColor=none;align=left;verticalAlign=top;spacingLeft=4;spacingRight=4;overflow=hidden;rotatable=0;points=[[0,0.5],[1,0.5]];portConstraint=eastwest;" parent="iWXe2AP6moQlenEiE9FN-1" vertex="1">
          <mxGeometry y="104" width="160" height="70" as="geometry" />
        </mxCell>
        <mxCell id="iWXe2AP6moQlenEiE9FN-5" value="代码片段" style="swimlane;fontStyle=1;align=center;verticalAlign=top;childLayout=stackLayout;horizontal=1;startSize=26;horizontalStack=0;resizeParent=1;resizeParentMax=0;resizeLast=0;collapsible=1;marginBottom=0;" parent="1" vertex="1">
          <mxGeometry x="430" y="106" width="230" height="178" as="geometry" />
        </mxCell>
        <mxCell id="iWXe2AP6moQlenEiE9FN-6" value="-内容:string&#xa;-所属文件：代码文件&#xa;-片段的对象函数调用图：对象函数调用图&#xa;-代码涉及API：API[1...*]" style="text;strokeColor=none;fillColor=none;align=left;verticalAlign=top;spacingLeft=4;spacingRight=4;overflow=hidden;rotatable=0;points=[[0,0.5],[1,0.5]];portConstraint=eastwest;" parent="iWXe2AP6moQlenEiE9FN-5" vertex="1">
          <mxGeometry y="26" width="230" height="74" as="geometry" />
        </mxCell>
        <mxCell id="iWXe2AP6moQlenEiE9FN-7" value="" style="line;strokeWidth=1;fillColor=none;align=left;verticalAlign=middle;spacingTop=-1;spacingLeft=3;spacingRight=3;rotatable=0;labelPosition=right;points=[];portConstraint=eastwest;" parent="iWXe2AP6moQlenEiE9FN-5" vertex="1">
          <mxGeometry y="100" width="230" height="8" as="geometry" />
        </mxCell>
        <mxCell id="iWXe2AP6moQlenEiE9FN-8" value="+提取代码涉及API（）&#xa;+获取代码文件（）&#xa;+获取对象函数调用图（）" style="text;strokeColor=none;fillColor=none;align=left;verticalAlign=top;spacingLeft=4;spacingRight=4;overflow=hidden;rotatable=0;points=[[0,0.5],[1,0.5]];portConstraint=eastwest;" parent="iWXe2AP6moQlenEiE9FN-5" vertex="1">
          <mxGeometry y="108" width="230" height="70" as="geometry" />
        </mxCell>
        <mxCell id="iWXe2AP6moQlenEiE9FN-9" value="对象函数调用图" style="swimlane;fontStyle=1;align=center;verticalAlign=top;childLayout=stackLayout;horizontal=1;startSize=26;horizontalStack=0;resizeParent=1;resizeParentMax=0;resizeLast=0;collapsible=1;marginBottom=0;" parent="1" vertex="1">
          <mxGeometry x="120" y="110" width="206.5" height="140" as="geometry" />
        </mxCell>
        <mxCell id="iWXe2AP6moQlenEiE9FN-10" value="-节点：&lt;int,label&gt;[0...*]&#xa;-顺序调用连线：&lt;int.int&gt;[0...*]&#xa;-数据依赖连线：&lt;int.int&gt;[0...*]&#xa;-嵌套调用连线：&lt;int,int&gt;[0...*]" style="text;strokeColor=none;fillColor=none;align=left;verticalAlign=top;spacingLeft=4;spacingRight=4;overflow=hidden;rotatable=0;points=[[0,0.5],[1,0.5]];portConstraint=eastwest;" parent="iWXe2AP6moQlenEiE9FN-9" vertex="1">
          <mxGeometry y="26" width="206.5" height="70" as="geometry" />
        </mxCell>
        <mxCell id="iWXe2AP6moQlenEiE9FN-11" value="" style="line;strokeWidth=1;fillColor=none;align=left;verticalAlign=middle;spacingTop=-1;spacingLeft=3;spacingRight=3;rotatable=0;labelPosition=right;points=[];portConstraint=eastwest;" parent="iWXe2AP6moQlenEiE9FN-9" vertex="1">
          <mxGeometry y="96" width="206.5" height="8" as="geometry" />
        </mxCell>
        <mxCell id="iWXe2AP6moQlenEiE9FN-12" value="+展示图结构：diagram" style="text;strokeColor=none;fillColor=none;align=left;verticalAlign=top;spacingLeft=4;spacingRight=4;overflow=hidden;rotatable=0;points=[[0,0.5],[1,0.5]];portConstraint=eastwest;" parent="iWXe2AP6moQlenEiE9FN-9" vertex="1">
          <mxGeometry y="104" width="206.5" height="36" as="geometry" />
        </mxCell>
        <mxCell id="iWXe2AP6moQlenEiE9FN-13" value="代码文件" style="swimlane;fontStyle=1;align=center;verticalAlign=top;childLayout=stackLayout;horizontal=1;startSize=26;horizontalStack=0;resizeParent=1;resizeParentMax=0;resizeLast=0;collapsible=1;marginBottom=0;" parent="1" vertex="1">
          <mxGeometry x="120" y="380" width="160" height="140" as="geometry" />
        </mxCell>
        <mxCell id="iWXe2AP6moQlenEiE9FN-14" value="-文件名：string&#xa;-所属仓库：string&#xa;-内容：string" style="text;strokeColor=none;fillColor=none;align=left;verticalAlign=top;spacingLeft=4;spacingRight=4;overflow=hidden;rotatable=0;points=[[0,0.5],[1,0.5]];portConstraint=eastwest;" parent="iWXe2AP6moQlenEiE9FN-13" vertex="1">
          <mxGeometry y="26" width="160" height="74" as="geometry" />
        </mxCell>
        <mxCell id="iWXe2AP6moQlenEiE9FN-15" value="" style="line;strokeWidth=1;fillColor=none;align=left;verticalAlign=middle;spacingTop=-1;spacingLeft=3;spacingRight=3;rotatable=0;labelPosition=right;points=[];portConstraint=eastwest;" parent="iWXe2AP6moQlenEiE9FN-13" vertex="1">
          <mxGeometry y="100" width="160" height="8" as="geometry" />
        </mxCell>
        <mxCell id="iWXe2AP6moQlenEiE9FN-16" value="+显示文件内容()&#xa;" style="text;strokeColor=none;fillColor=none;align=left;verticalAlign=top;spacingLeft=4;spacingRight=4;overflow=hidden;rotatable=0;points=[[0,0.5],[1,0.5]];portConstraint=eastwest;" parent="iWXe2AP6moQlenEiE9FN-13" vertex="1">
          <mxGeometry y="108" width="160" height="32" as="geometry" />
        </mxCell>
        <mxCell id="iWXe2AP6moQlenEiE9FN-17" value="API" style="swimlane;fontStyle=1;align=center;verticalAlign=top;childLayout=stackLayout;horizontal=1;startSize=26;horizontalStack=0;resizeParent=1;resizeParentMax=0;resizeLast=0;collapsible=1;marginBottom=0;" parent="1" vertex="1">
          <mxGeometry x="120" y="625" width="160" height="120" as="geometry" />
        </mxCell>
        <mxCell id="iWXe2AP6moQlenEiE9FN-18" value="-name：string&#xa;-class：string&#xa;-package：string" style="text;strokeColor=none;fillColor=none;align=left;verticalAlign=top;spacingLeft=4;spacingRight=4;overflow=hidden;rotatable=0;points=[[0,0.5],[1,0.5]];portConstraint=eastwest;" parent="iWXe2AP6moQlenEiE9FN-17" vertex="1">
          <mxGeometry y="26" width="160" height="54" as="geometry" />
        </mxCell>
        <mxCell id="iWXe2AP6moQlenEiE9FN-19" value="" style="line;strokeWidth=1;fillColor=none;align=left;verticalAlign=middle;spacingTop=-1;spacingLeft=3;spacingRight=3;rotatable=0;labelPosition=right;points=[];portConstraint=eastwest;" parent="iWXe2AP6moQlenEiE9FN-17" vertex="1">
          <mxGeometry y="80" width="160" height="40" as="geometry" />
        </mxCell>
        <mxCell id="iWXe2AP6moQlenEiE9FN-21" value="使用场景" style="swimlane;fontStyle=1;align=center;verticalAlign=top;childLayout=stackLayout;horizontal=1;startSize=26;horizontalStack=0;resizeParent=1;resizeParentMax=0;resizeLast=0;collapsible=1;marginBottom=0;" parent="1" vertex="1">
          <mxGeometry x="470" y="650" width="250" height="178" as="geometry" />
        </mxCell>
        <mxCell id="iWXe2AP6moQlenEiE9FN-22" value="-名称：string&#xa;-涉及API:API[1...*]&#xa;-案例：代码示例:[1...*]" style="text;strokeColor=none;fillColor=none;align=left;verticalAlign=top;spacingLeft=4;spacingRight=4;overflow=hidden;rotatable=0;points=[[0,0.5],[1,0.5]];portConstraint=eastwest;" parent="iWXe2AP6moQlenEiE9FN-21" vertex="1">
          <mxGeometry y="26" width="250" height="74" as="geometry" />
        </mxCell>
        <mxCell id="iWXe2AP6moQlenEiE9FN-23" value="" style="line;strokeWidth=1;fillColor=none;align=left;verticalAlign=middle;spacingTop=-1;spacingLeft=3;spacingRight=3;rotatable=0;labelPosition=right;points=[];portConstraint=eastwest;" parent="iWXe2AP6moQlenEiE9FN-21" vertex="1">
          <mxGeometry y="100" width="250" height="8" as="geometry" />
        </mxCell>
        <mxCell id="iWXe2AP6moQlenEiE9FN-24" value="+提供案例（）&#xa;+提供包含单个API的案例（单API：API）" style="text;strokeColor=none;fillColor=none;align=left;verticalAlign=top;spacingLeft=4;spacingRight=4;overflow=hidden;rotatable=0;points=[[0,0.5],[1,0.5]];portConstraint=eastwest;" parent="iWXe2AP6moQlenEiE9FN-21" vertex="1">
          <mxGeometry y="108" width="250" height="70" as="geometry" />
        </mxCell>
        <mxCell id="iWXe2AP6moQlenEiE9FN-29" value="" style="endArrow=open;endSize=12;dashed=1;html=1;exitX=0;exitY=0.5;exitDx=0;exitDy=0;entryX=1;entryY=0.5;entryDx=0;entryDy=0;" parent="1" source="iWXe2AP6moQlenEiE9FN-2" target="iWXe2AP6moQlenEiE9FN-14" edge="1">
          <mxGeometry width="160" relative="1" as="geometry">
            <mxPoint x="120" y="340" as="sourcePoint" />
            <mxPoint x="280" y="340" as="targetPoint" />
          </mxGeometry>
        </mxCell>
        <mxCell id="iWXe2AP6moQlenEiE9FN-31" value="" style="endArrow=open;endSize=12;dashed=1;html=1;exitX=0;exitY=0.5;exitDx=0;exitDy=0;entryX=1;entryY=0.5;entryDx=0;entryDy=0;" parent="1" source="iWXe2AP6moQlenEiE9FN-6" target="iWXe2AP6moQlenEiE9FN-10" edge="1">
          <mxGeometry width="160" relative="1" as="geometry">
            <mxPoint x="450.0000000000001" y="452" as="sourcePoint" />
            <mxPoint x="289.9999999999999" y="453" as="targetPoint" />
          </mxGeometry>
        </mxCell>
        <mxCell id="iWXe2AP6moQlenEiE9FN-32" value="" style="endArrow=open;endSize=12;dashed=1;html=1;exitX=0.5;exitY=0;exitDx=0;exitDy=0;entryX=0.435;entryY=1.074;entryDx=0;entryDy=0;entryPerimeter=0;" parent="1" source="iWXe2AP6moQlenEiE9FN-1" target="iWXe2AP6moQlenEiE9FN-8" edge="1">
          <mxGeometry width="160" relative="1" as="geometry">
            <mxPoint x="460.0000000000001" y="462" as="sourcePoint" />
            <mxPoint x="299.9999999999999" y="463" as="targetPoint" />
          </mxGeometry>
        </mxCell>
        <mxCell id="iWXe2AP6moQlenEiE9FN-33" value="" style="endArrow=open;endSize=12;dashed=1;html=1;exitX=0;exitY=0.5;exitDx=0;exitDy=0;entryX=0.5;entryY=0;entryDx=0;entryDy=0;" parent="1" source="iWXe2AP6moQlenEiE9FN-4" target="iWXe2AP6moQlenEiE9FN-17" edge="1">
          <mxGeometry width="160" relative="1" as="geometry">
            <mxPoint x="470.0000000000001" y="472" as="sourcePoint" />
            <mxPoint x="309.9999999999999" y="473" as="targetPoint" />
          </mxGeometry>
        </mxCell>
        <mxCell id="iWXe2AP6moQlenEiE9FN-34" value="" style="endArrow=open;endSize=12;dashed=1;html=1;exitX=0;exitY=0.5;exitDx=0;exitDy=0;entryX=1;entryY=0.5;entryDx=0;entryDy=0;" parent="1" source="iWXe2AP6moQlenEiE9FN-8" target="iWXe2AP6moQlenEiE9FN-18" edge="1">
          <mxGeometry width="160" relative="1" as="geometry">
            <mxPoint x="480.0000000000001" y="482" as="sourcePoint" />
            <mxPoint x="319.9999999999999" y="483" as="targetPoint" />
          </mxGeometry>
        </mxCell>
        <mxCell id="iWXe2AP6moQlenEiE9FN-35" value="" style="endArrow=open;endSize=12;dashed=1;html=1;exitX=0;exitY=0.5;exitDx=0;exitDy=0;entryX=1;entryY=0.75;entryDx=0;entryDy=0;" parent="1" source="iWXe2AP6moQlenEiE9FN-22" target="iWXe2AP6moQlenEiE9FN-17" edge="1">
          <mxGeometry width="160" relative="1" as="geometry">
            <mxPoint x="490.0000000000001" y="492" as="sourcePoint" />
            <mxPoint x="329.9999999999999" y="493" as="targetPoint" />
          </mxGeometry>
        </mxCell>
        <mxCell id="iWXe2AP6moQlenEiE9FN-36" value="" style="endArrow=open;endSize=12;dashed=1;html=1;exitX=0.25;exitY=0;exitDx=0;exitDy=0;" parent="1" source="iWXe2AP6moQlenEiE9FN-21" target="iWXe2AP6moQlenEiE9FN-4" edge="1">
          <mxGeometry width="160" relative="1" as="geometry">
            <mxPoint x="500.0000000000001" y="502" as="sourcePoint" />
            <mxPoint x="540" y="590" as="targetPoint" />
          </mxGeometry>
        </mxCell>
        <mxCell id="bPBToo5G3q3qpgtkIBGB-3" style="edgeStyle=orthogonalEdgeStyle;rounded=0;orthogonalLoop=1;jettySize=auto;html=1;exitX=0;exitY=0.5;exitDx=0;exitDy=0;entryX=0.5;entryY=1;entryDx=0;entryDy=0;" edge="1" parent="1" source="iWXe2AP6moQlenEiE9FN-24" target="iWXe2AP6moQlenEiE9FN-17">
          <mxGeometry relative="1" as="geometry" />
        </mxCell>
      </root>
    </mxGraphModel>
  </diagram>
</mxfile>
